<svg xmlns="http://www.w3.org/2000/svg" width="128mm" height="128mm" viewBox="0 0 128 128"><defs><clipPath id="a"><path fill="#fff" d="M0 0h24v24H0z"/></clipPath></defs><path d="M104.973 94.06c.51.29 1.001.647 1.59.757.149.034.322.064.439.08 1.618.203 3.243-.088 4.836-.358.512-.071 1.023-.182 1.54-.205.577.028.979.517 1.266.967.935 1.518 1.373 3.275 2.223 4.836.328.591.794 1.099 1.31 1.531.68.53 1.567.639 2.39.779 1.39.22 2.8.31 4.182.586.438.087.915.25 1.142.666.26.477.293 1.034.38 1.56.15 1.045.242 2.097.4 3.14.034.199.081.46.135.68.242 1.067.72 2.132 1.593 2.83.63.53 1.423.795 2.168 1.116 1.077.452 2.204.788 3.242 1.328.458.23.882.626.948 1.16.085.664-.06 1.33-.148 1.987-.218 1.35-.567 2.708-.43 4.086.078.874.442 1.707.996 2.384.962 1.184 2.244 2.037 3.455 2.941.471.375.964.74 1.342 1.212.176.245.327.542.248.852-.141.62-.427 1.193-.66 1.78-.411 1.011-.877 2-1.238 3.03-.277.81-.307 1.675-.307 2.522.023.74.442 1.39.847 1.98.094.14.196.275.305.43.815 1.102 1.764 2.102 2.545 3.23.194.323.44.65.472 1.034-.046.38-.317.682-.517.996-.696.988-1.488 1.903-2.262 2.83-.716.899-1.367 1.944-1.427 3.122-.052 1.113.329 2.184.73 3.204.114.285.252.62.382.921.352.854.78 1.682 1.038 2.572.12.41.082.893-.228 1.211-.611.676-1.378 1.185-2.108 1.722-1.058.786-2.14 1.596-2.896 2.693-.53.768-.75 1.711-.735 2.636-.005 1.683.546 3.304.617 4.98.022.502-.068 1.085-.51 1.394-.51.31-1.078.51-1.625.744-1.352.556-2.76 1.012-4.01 1.785-.64.395-1.181.97-1.451 1.68-.3.741-.422 1.538-.535 2.325-.045.32-.086.696-.126 1.039-.115.954-.203 1.913-.36 2.862-.091.485-.502.837-.955.983-.898.296-1.852.35-2.785.465-.907.106-1.85.219-2.757.418a4.38 4.38 0 0 0-2.5 1.7c-.805 1.082-1.168 2.399-1.66 3.635-.278.685-.51 1.402-.925 2.019a1.25 1.25 0 0 1-1.078.551c-.867.005-1.751-.16-2.583-.319-1.25-.23-2.528-.334-3.796-.252-.67.05-1.23.457-1.82.735l-1.023.528v-5.144c1.64-.767 3.273-1.556 4.852-2.444 2.47-1.388 4.875-2.91 7.079-4.694 1.586-1.323 3.07-2.766 4.513-4.241a36 36 0 0 0 2.849-3.248c2.741-3.491 5.017-7.353 6.687-11.468.08-.205.186-.468.275-.696a48.3 48.3 0 0 0 2.83-11.068 47.5 47.5 0 0 0 .347-8.306 48.6 48.6 0 0 0-1.098-8.331c-.791-3.572-2-7.092-3.64-10.38-1.274-2.538-3-4.806-4.586-7.15q-.904-1.315-1.778-2.65c-.872-1.082-1.856-2.068-2.837-3.051a61 61 0 0 0-1.943-1.848 45 45 0 0 0-2.41-2.05c-2.646-2.108-5.583-3.816-8.598-5.336l-2.542-1.297v-5.105z" style="fill:#fca;fill-opacity:1;stroke:#000;stroke-width:.128629" transform="translate(-22.244 -78.922)"/><path d="M104.293 126.223c.013-5.253.008-10.506.07-15.758l.126-8.56c2.293 1.216 4.617 2.392 6.767 3.854 2.958 1.976 5.56 4.424 8.071 6.928.938.94 1.844 1.93 2.51 3.085 1.443 2.36 2.97 4.667 4.406 7.03.728 1.225 1.482 2.44 2.048 3.752 1.84 4.091 2.818 8.548 3.027 13.023.142 3.594-.214 7.194-.86 10.728-.76 4.068-1.937 8.078-3.741 11.811a46.2 46.2 0 0 1-11.092 14.624 42.7 42.7 0 0 1-7.385 5.224c-.928.512-1.854 1.04-2.843 1.428-.231.09-.506.145-.725-.005-.177-.023-.155-.195-.18-.331-.057-.949-.045-1.901-.063-2.852-.081-9.097-.098-18.196-.12-27.294a8859 8859 0 0 1-.017-26.688z" style="fill:#ffb380;fill-opacity:1;stroke:#000;stroke-width:.128629" transform="translate(-22.244 -78.922)"/><path d="M41.576 141.99c.018-2.478.12-4.97.607-7.406.342-1.733.814-3.439 1.329-5.128 1.101-3.47 2.683-6.776 4.565-9.888 1.728-2.849 3.752-5.522 6.089-7.9 3.237-3.3 6.96-6.136 11.046-8.303.941-.49 1.888-.967 2.832-1.452.043 3.11.083 6.22.086 9.329.037 13.109.02 26.218.007 39.327-.018 10.037-.025 20.074-.09 30.11-.015.81 0 1.62-.047 2.426.03.157-.09.225-.207.296-.314.203-.698.02-1.01-.1-1.164-.516-2.258-1.176-3.348-1.83-2.004-1.22-3.943-2.551-5.744-4.057-4.701-3.888-8.61-8.736-11.375-14.176-1.796-3.515-3.105-7.271-3.941-11.127a31.5 31.5 0 0 1-.747-5.848 94 94 0 0 1-.051-4.273z" style="fill:#f95;fill-opacity:1;stroke:#000;stroke-width:.128629" transform="translate(-22.244 -78.922)"/><path d="M30.357 142.97c.023-.522.366-.953.655-1.363.865-1.207 1.914-2.275 2.728-3.52.407-.613.689-1.318.725-2.058a4.96 4.96 0 0 0-.295-2.195c-.556-1.625-1.4-3.14-1.891-4.787-.135-.49.176-.961.521-1.28 1.016-.953 2.224-1.66 3.274-2.57.898-.764 1.755-1.682 2.066-2.85.31-1.135.165-2.328-.018-3.47-.035-.197-.08-.46-.12-.68-.135-.826-.318-1.657-.274-2.498.017-.5.29-.985.736-1.224 1.174-.617 2.443-1.022 3.665-1.53.452-.192.949-.391 1.394-.635a4.24 4.24 0 0 0 1.832-2.152c.546-1.348.57-2.82.766-4.241.104-.702.159-1.426.431-2.087.154-.39.524-.647.922-.743.9-.23 1.833-.28 2.752-.4a41 41 0 0 0 1.667-.217c.869-.134 1.762-.322 2.491-.842.816-.51 1.253-1.408 1.64-2.253.59-1.296.977-2.678 1.613-3.955.224-.451.573-.894 1.09-1.009.46-.084.928.013 1.388.055 1.172.153 2.328.429 3.512.482 1.033.051 2.122.031 3.07-.43l1.523-.79v5.037c-2.096 1.068-4.22 2.09-6.236 3.306-4.396 2.609-8.417 5.88-11.745 9.768a45 45 0 0 0-2.474 3.155c-.523.732-1.02 1.47-1.496 2.223a52.5 52.5 0 0 0-3.27 6.037c-.3.644-.573 1.27-.847 1.934a43.3 43.3 0 0 0-2.269 7.215 52 52 0 0 0-.731 4.046 47.45 47.45 0 0 0 1.92 21.274 47.8 47.8 0 0 0 5.6 11.556 47 47 0 0 0 3.531 4.666 60 60 0 0 0 4.35 4.414 42.5 42.5 0 0 0 6.664 5.01c1.984 1.216 4.07 2.25 6.163 3.262l.832.407.009 5.206c-.57-.32-1.12-.682-1.706-.972-.608-.268-1.317-.373-1.949-.402a11 11 0 0 0-1.993.11c-.094.012-.274.04-.4.06-.832.142-1.651.373-2.5.397-.506.012-1.055.038-1.512-.219-.316-.233-.453-.623-.63-.96-.42-.934-.75-1.907-1.13-2.86-.336-.93-.756-1.861-1.463-2.574-.476-.535-1.081-.965-1.776-1.161-1.141-.336-2.335-.426-3.512-.564-.81-.101-1.64-.161-2.413-.44-.463-.155-.853-.55-.92-1.044-.279-1.695-.346-3.422-.73-5.1-.208-.916-.58-1.85-1.332-2.455-.516-.436-1.178-.748-1.766-.996-1.062-.425-2.145-.798-3.188-1.271-.424-.208-.883-.38-1.23-.71-.334-.34-.335-.856-.326-1.303.075-1.67.596-3.29.596-4.967.012-.885-.2-1.79-.721-2.517-.703-1-1.688-1.752-2.647-2.492-.785-.603-1.604-1.174-2.3-1.884-.25-.25-.432-.592-.378-.956.086-.692.407-1.324.674-1.96.549-1.27 1.126-2.546 1.414-3.906.173-.814.144-1.685-.199-2.452-.571-1.3-1.586-2.325-2.443-3.434-.46-.598-.96-1.18-1.301-1.857a1 1 0 0 1-.085-.385z" style="fill:#f60;fill-opacity:1;stroke:#000;stroke-width:.128629" transform="translate(-22.244 -78.922)"/><path d="M144.73 140.972c-.3-.634-1.138-1.828-1.863-2.652-1.542-1.756-2.018-2.58-1.823-3.156.077-.23.594-1.409 1.149-2.62 1.363-2.974 1.485-3.987.681-5.63-.483-.987-.963-1.52-2.135-2.37-3.458-2.51-3.41-2.466-3.487-3.25-.04-.41.09-1.533.288-2.493.999-4.829-.019-6.63-4.609-8.158-3.108-1.036-3.084-1.007-3.358-4.034-.315-3.48-.541-4.2-1.673-5.332-1.106-1.107-1.95-1.39-4.758-1.596-3.528-.26-3.584-.304-4.71-3.72-1.396-4.236-3.424-5.34-7.974-4.34-2.753.606-3.075.532-4.268-.98-.575-.73-1.397-2.062-1.827-2.962-.877-1.837-2.148-3.093-3.558-3.516-1.261-.378-27.86-.378-29.122 0-1.41.423-2.681 1.679-3.558 3.516-.43.9-1.251 2.233-1.827 2.962-1.193 1.512-1.514 1.586-4.268.98-4.55-1-6.578.104-7.974 4.34-1.126 3.416-1.181 3.46-4.71 3.72-2.807.206-3.651.49-4.758 1.596-1.106 1.106-1.389 1.95-1.595 4.757-.26 3.529-.304 3.584-3.72 4.71-4.277 1.41-5.304 3.322-4.325 8.057.199.96.329 2.082.289 2.494-.077.783-.03.739-3.487 3.248-1.173.851-1.653 1.384-2.136 2.37-.804 1.644-.681 2.657.682 5.632.554 1.21 1.071 2.389 1.149 2.619.194.576-.281 1.4-1.824 3.156-1.507 1.716-2.409 3.443-2.409 4.612s.902 2.897 2.409 4.612c1.543 1.757 2.018 2.58 1.824 3.157-.078.23-.595 1.408-1.15 2.619-1.362 2.975-1.485 3.987-.68 5.63.482.988.962 1.52 2.135 2.371 3.457 2.51 3.41 2.466 3.487 3.249.04.411-.09 1.533-.289 2.494-.979 4.735.047 6.647 4.325 8.056 3.416 1.126 3.46 1.182 3.72 4.71.206 2.807.49 3.652 1.595 4.758 1.132 1.132 1.854 1.358 5.333 1.673 3.027.274 2.998.25 4.034 3.358.398 1.195 1.035 2.602 1.415 3.128 1.267 1.748 3.37 2.22 6.66 1.496 2.754-.605 3.075-.532 4.268.98.576.73 1.398 2.063 1.827 2.962.877 1.838 2.148 3.094 3.558 3.516.636.19 4.876.266 14.703.263 13.395-.005 13.841-.02 14.848-.475 1.474-.667 2.236-1.478 3.125-3.325.427-.888 1.25-2.211 1.827-2.94 1.198-1.512 1.52-1.586 4.272-.98 3.291.723 5.394.25 6.66-1.497.38-.526 1.018-1.933 1.416-3.128 1.035-3.108 1.007-3.084 4.033-3.358 3.48-.315 4.201-.541 5.333-1.673s1.358-1.853 1.673-5.333c.274-3.026.25-2.998 3.358-4.033 1.195-.398 2.602-1.035 3.128-1.416 1.748-1.266 2.22-3.369 1.496-6.66-.181-.824-.333-1.885-.338-2.358-.008-.927.164-1.096 3.656-3.59 1.052-.753 1.536-1.296 2.005-2.256.8-1.634.676-2.652-.685-5.622-.555-1.21-1.072-2.39-1.15-2.62-.194-.576.282-1.4 1.824-3.156 1.507-1.715 2.41-3.442 2.41-4.612 0-.444-.246-1.326-.547-1.96m-3.403 2.929c-.271.382-1.008 1.28-1.636 1.996-2.631 2.998-2.774 4.355-.883 8.405.486 1.04.957 2.131 1.047 2.426.205.673-.223 1.171-2.07 2.407-3.854 2.579-4.606 4.305-3.689 8.473.181.824.334 1.894.338 2.376.008.84-.043.9-1.203 1.404-.666.29-1.917.773-2.781 1.073-1.901.66-3.198 1.717-3.73 3.04-.218.542-.492 2.075-.608 3.407s-.268 2.603-.338 2.825c-.2.64-.833.849-3.015.997-4.695.319-6.015 1.29-7.342 5.402-.225.698-.605 1.658-.844 2.133-.387.77-.528.864-1.294.857-.473-.005-1.535-.156-2.36-.338-2.346-.516-4.086-.443-5.246.22l-.98.56v-4.295l2.825-1.397c9.528-4.715 17.044-12.26 21.756-21.839 6.68-13.578 6.526-29.544-.414-43.048-.76-1.48-5.734-8.44-5.978-8.703-.682-.732-1.52-.85-2.24-.317-1.044.777-2.328-.826 5.105 10.642 6.108 9.425 6.287 20.934 3.465 31.74-2.793 10.7-9.967 20.41-19.452 26.331-1.428.891-4.686 2.611-4.946 2.611-.066 0-.121-18.16-.121-40.357s.054-40.357.12-40.357c.36 0 3.966 1.982 5.76 3.166 3.051 2.012 5.235 3.846 8.005 6.724 2.042 2.12 2.585 2.563 3.144 2.563 1.629 0 2.222-1.629 1.12-3.074-.911-1.194-4.495-4.718-6.291-6.185-2.548-2.081-5.986-4.282-9.033-5.783l-2.825-1.39v-4.354l.735.523c.993.707 2.892.82 5.45.324 3.163-.615 3.251-.58 4.111 1.606.4 1.014.909 2.3 1.132 2.859.556 1.384 1.532 2.436 2.7 2.906.537.216 2.067.488 3.399.604s2.603.268 2.825.338c.64.201.849.833.997 3.015.319 4.696 1.29 6.015 5.402 7.343.698.225 1.658.604 2.133.843.77.387.864.529.857 1.295-.005.473-.156 1.534-.338 2.359-.917 4.167-.165 5.894 3.69 8.473 1.847 1.236 2.275 1.734 2.068 2.407-.09.294-.64 1.573-1.222 2.841-1.64 3.573-1.45 5.158.933 7.853q2.25 2.543 2.254 3.066c.001.17-.22.622-.492 1.004m-40.764 53.949-.441.544-13.57.057c-10.627.045-13.693-.007-14.145-.236-1.057-.539-1.126-1.228-1.14-11.409-.013-9.196-.028-9.528-.474-9.974-.582-.582-1.632-.592-2.338-.02-.514.415-.549.61-.62 3.458-.042 1.66-.146 3.017-.231 3.015-.085-.003-1.089-.501-2.23-1.108-10.887-5.79-19.015-16.026-22.098-27.83-1.108-4.24-1.392-6.573-1.392-11.415 0-4.822.29-7.221 1.366-11.3 3.213-12.178 11.657-22.688 22.69-28.245.888-.447 1.667-.812 1.732-.812s.146 15.472.179 34.381l.06 43.606.647.556c.792.682 1.298.701 2.089.079l.607-.478.017-49.046c.007-21.902.09-40.625.179-41.606.112-1.23.288-1.911.568-2.191.379-.378 1.343-.406 14.255-.406h13.849l.44.544c.432.533.441 1.726.441 54.918 0 53.188-.009 54.385-.44 54.918M64.97 99.98c-9.62 4.817-17.046 12.276-21.756 21.85-9.04 18.38-5.374 40.445 9.138 54.99 3.79 3.797 7.765 6.65 12.618 9.05l2.825 1.398v4.296l-.98-.56c-1.16-.664-2.9-.737-5.246-.22-.825.18-1.886.333-2.36.337-.766.007-.907-.086-1.294-.857-.239-.475-.618-1.435-.843-2.133-1.328-4.112-2.647-5.083-7.343-5.402-2.183-.148-2.816-.358-3.012-.997-.069-.222-.229-1.516-.355-2.874-.406-4.344-1.276-5.45-5.318-6.754-.697-.225-1.657-.605-2.133-.844-.77-.387-.864-.528-.857-1.294.005-.473.157-1.535.338-2.36.902-4.1.19-5.81-3.459-8.296-2.081-1.419-2.507-1.896-2.306-2.583.087-.295.632-1.564 1.211-2.82 1.742-3.777 1.52-5.094-1.421-8.439-.837-.951-1.583-1.959-1.658-2.239-.156-.58.326-1.356 2.048-3.296 2.512-2.83 2.707-4.343 1.031-7.977-.58-1.257-1.124-2.526-1.21-2.82-.197-.668.227-1.165 2.052-2.408 3.899-2.655 4.626-4.316 3.712-8.472-.181-.825-.333-1.886-.338-2.36-.007-.765.087-.907.857-1.294.476-.239 1.436-.618 2.133-.843 4.113-1.328 5.084-2.647 5.402-7.343.149-2.182.358-2.814.998-3.015.222-.07 1.495-.221 2.83-.336 4.268-.369 5.455-1.256 6.678-4.988.291-.888.725-2.003.963-2.479.514-1.023.948-1.08 3.781-.494 2.352.486 4.383.359 5.36-.337l.74-.526v4.325z" style="fill:#030201;fill-opacity:1;stroke-width:.230611" transform="translate(-22.244 -78.922)"/><g clip-path="url(#a)" style="fill:#dc2121;fill-opacity:1;stroke-width:.977272;stroke-dasharray:none" transform="matrix(3.41814 0 0 4.47108 22.982 -6.995)"><path stroke="#292929" stroke-linecap="round" stroke-linejoin="round" stroke-width="2.5" d="M16 3H8a2 2 0 0 0-2 2v16l6-3 6 3V5a2 2 0 0 0-2-2" style="fill:#dc2121;fill-opacity:1;stroke-width:.977272;stroke-dasharray:none"/></g></svg>