<?xml version="1.0" encoding="UTF-8" standalone="no"?>
<!-- Created with Inkscape (http://www.inkscape.org/) -->

<svg
   width="128mm"
   height="128mm"
   viewBox="0 0 128 128"
   version="1.1"
   id="svg1"
   inkscape:version="1.3.2 (091e20ef0f, 2023-11-25, custom)"
   sodipodi:docname="logo.svg"
   xmlns:inkscape="http://www.inkscape.org/namespaces/inkscape"
   xmlns:sodipodi="http://sodipodi.sourceforge.net/DTD/sodipodi-0.dtd"
   xmlns="http://www.w3.org/2000/svg"
   xmlns:svg="http://www.w3.org/2000/svg">
  <sodipodi:namedview
     id="namedview1"
     pagecolor="#ffffff"
     bordercolor="#000000"
     borderopacity="0.25"
     inkscape:showpageshadow="2"
     inkscape:pageopacity="0.0"
     inkscape:pagecheckerboard="0"
     inkscape:deskcolor="#d1d1d1"
     inkscape:document-units="mm"
     inkscape:zoom="0.71713664"
     inkscape:cx="89.941019"
     inkscape:cy="50.896856"
     inkscape:window-width="1499"
     inkscape:window-height="991"
     inkscape:window-x="26"
     inkscape:window-y="23"
     inkscape:window-maximized="0"
     inkscape:current-layer="layer1" />
  <defs
     id="defs1">
    <clipPath
       id="clip0_429_11040">
      <rect
         width="24"
         height="24"
         fill="#ffffff"
         id="rect1"
         x="0"
         y="0" />
    </clipPath>
    <clipPath
       id="clip0_429_11040-5">
      <rect
         width="24"
         height="24"
         fill="#ffffff"
         id="rect1-5"
         x="0"
         y="0" />
    </clipPath>
  </defs>
  <g
     inkscape:label="Layer 1"
     inkscape:groupmode="layer"
     id="layer1"
     transform="translate(-27.212086,-78.07215)">
    <text
       xml:space="preserve"
       style="font-weight:bold;font-size:19.7556px;font-family:sans-serif;-inkscape-font-specification:'sans-serif Bold';opacity:0;fill:#000000;fill-opacity:1;stroke:#000000;stroke-width:5.34458"
       x="62.412804"
       y="135.40608"
       id="text1"><tspan
         sodipodi:role="line"
         id="tspan1"
         style="fill:#000000;fill-opacity:1;stroke-width:5.34458"
         x="62.412804"
         y="135.40608" /></text>
    <text
       xml:space="preserve"
       style="font-weight:bold;font-size:19.7556px;font-family:sans-serif;-inkscape-font-specification:'sans-serif Bold';opacity:0.991148;fill:#000000;fill-opacity:1;stroke:#000000;stroke-width:5.34458"
       x="94.397087"
       y="144.88333"
       id="text2"><tspan
         sodipodi:role="line"
         id="tspan2"
         style="fill:#000000;fill-opacity:1;stroke-width:5.34458"
         x="94.397087"
         y="144.88333" /></text>
    <text
       xml:space="preserve"
       style="font-style:normal;font-variant:normal;font-weight:normal;font-stretch:normal;font-size:25.4px;font-family:sans-serif;-inkscape-font-specification:sans-serif;opacity:0.991148;fill:#000000;fill-opacity:1;stroke:#000000;stroke-width:5.34458"
       x="67.663055"
       y="145.29407"
       id="text3"><tspan
         sodipodi:role="line"
         id="tspan3"
         style="font-style:normal;font-variant:normal;font-weight:normal;font-stretch:normal;font-size:25.4px;font-family:sans-serif;-inkscape-font-specification:sans-serif;fill:#000000;fill-opacity:1;stroke-width:5.34458"
         x="67.663055"
         y="145.29407" /></text>
    <text
       xml:space="preserve"
       style="font-style:normal;font-variant:normal;font-weight:normal;font-stretch:normal;font-size:25.4px;font-family:Arial;-inkscape-font-specification:Arial;opacity:0.991148;fill:#000000;fill-opacity:1;stroke:#000000;stroke-width:5.34458"
       x="64.400925"
       y="150.60126"
       id="text4"><tspan
         sodipodi:role="line"
         id="tspan4"
         style="font-style:normal;font-variant:normal;font-weight:normal;font-stretch:normal;font-family:Arial;-inkscape-font-specification:Arial;stroke-width:5.34458"
         x="64.400925"
         y="150.60126" /></text>
    <text
       xml:space="preserve"
       style="font-style:normal;font-variant:normal;font-weight:normal;font-stretch:normal;font-size:25.4px;font-family:Arial;-inkscape-font-specification:Arial;opacity:0.991148;fill:#000000;fill-opacity:1;stroke:#000000;stroke-width:5.34458"
       x="66.805542"
       y="147.35713"
       id="text5"><tspan
         sodipodi:role="line"
         id="tspan5"
         style="stroke-width:5.34458"
         x="66.805542"
         y="147.35713" /></text>
    <text
       xml:space="preserve"
       style="font-style:normal;font-variant:normal;font-weight:normal;font-stretch:normal;font-size:25.4px;font-family:Arial;-inkscape-font-specification:Arial;opacity:0.991148;fill:#000000;fill-opacity:1;stroke:#000000;stroke-width:5.34458"
       x="15.247768"
       y="45.12936"
       id="text6"><tspan
         sodipodi:role="line"
         id="tspan6"
         style="stroke-width:5.34458"
         x="15.247768"
         y="45.12936" /></text>
    <text
       xml:space="preserve"
       style="font-style:normal;font-variant:normal;font-weight:normal;font-stretch:normal;font-size:25.4px;font-family:Arial;-inkscape-font-specification:Arial;opacity:0.991148;fill:#000000;fill-opacity:1;stroke:#000000;stroke-width:5.34458"
       x="76.757668"
       y="141.84891"
       id="text7"><tspan
         sodipodi:role="line"
         id="tspan7"
         style="stroke-width:5.34458"
         x="76.757668"
         y="141.84891" /></text>
    <g
       id="g6"
       transform="translate(4.967898,-0.84971722)">
      <path
         id="path5"
         style="fill:#ffccaa;fill-opacity:1;stroke:#000000;stroke-width:0.128629"
         d="m 104.97337,94.060566 c 0.50999,0.29014 1.00077,0.64683 1.58996,0.75624 0.14835,0.0346 0.3212,0.0643 0.43833,0.0801 1.61869,0.20348 3.24315,-0.0884 4.83627,-0.35754 0.51251,-0.0714 1.02288,-0.18286 1.54022,-0.20562 0.57698,0.0284 0.97835,0.517 1.26604,0.9668 0.93513,1.51821 1.3732,3.27503 2.22273,4.836034 0.32794,0.59177 0.79451,1.09929 1.31075,1.53191 0.67996,0.5298 1.56591,0.63818 2.38926,0.77835 1.39072,0.21965 2.80036,0.31078 4.18225,0.58569 0.43805,0.0874 0.91491,0.24969 1.14225,0.66685 0.25878,0.4765 0.29259,1.03354 0.37899,1.55949 0.15127,1.04469 0.24254,2.09728 0.39981,3.14105 0.0346,0.1976 0.0821,0.45958 0.13594,0.67941 0.24232,1.0667 0.72062,2.13179 1.59279,2.82933 0.63054,0.52952 1.42272,0.79504 2.16827,1.11634 1.07681,0.45151 2.20392,0.78839 3.24204,1.3284 0.45762,0.23048 0.88212,0.6255 0.94772,1.15882 0.0847,0.66481 -0.0604,1.33035 -0.14772,1.98759 -0.21797,1.35068 -0.5673,2.70781 -0.42961,4.08642 0.0773,0.87388 0.44123,1.70706 0.99564,2.38328 0.9617,1.18415 2.24414,2.03764 3.45518,2.94156 0.47068,0.3749 0.96337,0.73985 1.34194,1.21201 0.17537,0.24538 0.3269,0.54215 0.24739,0.85231 -0.14078,0.61892 -0.42677,1.19289 -0.66006,1.78049 -0.41091,1.0103 -0.8764,1.99964 -1.23731,3.02956 -0.27774,0.80865 -0.30754,1.67489 -0.30727,2.52179 0.0229,0.74037 0.44135,1.38883 0.8472,1.98047 0.0936,0.13859 0.19517,0.27418 0.30472,0.42866 0.81528,1.10256 1.7636,2.10221 2.54496,3.23054 0.19377,0.32266 0.4393,0.64939 0.47216,1.03433 -0.0466,0.38069 -0.31769,0.68222 -0.51673,0.99538 -0.69607,0.98885 -1.48838,1.9037 -2.26296,2.83048 -0.71556,0.89851 -1.36637,1.94345 -1.42698,3.12141 -0.0514,1.1137 0.3295,2.18405 0.73102,3.20469 0.11387,0.28514 0.25163,0.61914 0.38115,0.92084 0.3524,0.85407 0.77952,1.68202 1.03811,2.57167 0.12063,0.40976 0.0824,0.89292 -0.22749,1.21172 -0.61162,0.67582 -1.3784,1.18428 -2.10846,1.72113 -1.05775,0.78602 -2.1396,1.5968 -2.89606,2.69372 -0.53076,0.76765 -0.75061,1.7108 -0.73485,2.63546 -0.005,1.68294 0.54634,3.30472 0.61685,4.98048 0.0221,0.50167 -0.0675,1.08442 -0.50897,1.39414 -0.51033,0.30908 -1.07871,0.50885 -1.62555,0.74362 -1.35205,0.55627 -2.76038,1.01182 -4.01018,1.78527 -0.64047,0.39433 -1.18139,0.97006 -1.45134,1.67962 -0.29934,0.74124 -0.42133,1.53784 -0.53482,2.32472 -0.0446,0.32096 -0.0864,0.69655 -0.12624,1.03905 -0.11439,0.95465 -0.20307,1.91369 -0.36014,2.86243 -0.0908,0.48466 -0.50131,0.83711 -0.95452,0.98332 -0.89844,0.29587 -1.85183,0.34975 -2.78478,0.46449 -0.90682,0.10593 -1.84943,0.2191 -2.75739,0.41785 -1.00176,0.24632 -1.90168,0.86064 -2.50052,1.70023 -0.8039,1.08246 -1.16696,2.39907 -1.6601,3.63468 -0.27725,0.68517 -0.50835,1.402 -0.92419,2.0194 -0.23555,0.35621 -0.65224,0.56561 -1.07782,0.55131 -0.86745,0.005 -1.75153,-0.16046 -2.58358,-0.31936 -1.24907,-0.22977 -2.5273,-0.33414 -3.79607,-0.25184 -0.66933,0.0497 -1.22999,0.45716 -1.81978,0.73512 -0.34095,0.17578 -0.68187,0.35162 -1.0228,0.52746 0,-1.71457 0,-3.42915 0,-5.14373 1.64062,-0.76749 3.27292,-1.55567 4.85215,-2.4442 2.46965,-1.38759 4.87478,-2.90916 7.07871,-4.69392 1.58658,-1.32292 3.06942,-2.76564 4.5136,-4.24116 1.00829,-1.02941 1.96912,-2.10578 2.84847,-3.24794 2.74147,-3.49122 5.01657,-7.35324 6.68692,-11.46792 0.0798,-0.2047 0.18656,-0.46795 0.2753,-0.69583 1.3743,-3.56033 2.33081,-7.28384 2.82932,-11.0679 0.20509,-1.56617 0.32888,-3.16672 0.37528,-4.73042 0.034,-1.195 0.0254,-2.39379 -0.0281,-3.57598 -0.12324,-2.78466 -0.49048,-5.5942 -1.09718,-8.33102 -0.79159,-3.57181 -2.00059,-7.09214 -3.64144,-10.37971 -1.27294,-2.5384 -2.99974,-4.80563 -4.58534,-7.15002 -0.60342,-0.8759 -1.19416,-1.76091 -1.77772,-2.64974 -0.87193,-1.08254 -1.8562,-2.06843 -2.83676,-3.05162 -0.63982,-0.63548 -1.28929,-1.25298 -1.94275,-1.84718 -0.78226,-0.7122 -1.60275,-1.41267 -2.41089,-2.05034 -2.6454,-2.10815 -5.58246,-3.81626 -8.5973,-5.33589 -0.84748,-0.432404 -1.69482,-0.865034 -2.54238,-1.297284 0,-1.70166 0,-3.40332 0,-5.10498 0.23153,0.13588 0.46302,0.27175 0.69455,0.40762 z" />
      <path
         id="path3"
         style="fill:#ffb380;fill-opacity:1;stroke:#000000;stroke-width:0.128629"
         d="m 104.29279,126.2228 c 0.013,-5.25259 0.008,-10.50539 0.0696,-15.7577 0.0423,-2.85353 0.0842,-5.70706 0.12662,-8.56058 2.29328,1.21621 4.61673,2.39244 6.76736,3.85404 2.95778,1.97605 5.5597,4.42401 8.07106,6.92889 0.93741,0.93922 1.84322,1.92938 2.51004,3.08431 1.44279,2.35966 2.96879,4.66702 4.40561,7.03015 0.72769,1.22471 1.48232,2.44053 2.04755,3.75176 1.84077,4.09146 2.81866,8.54846 3.02749,13.02321 0.14176,3.59398 -0.21381,7.19404 -0.85951,10.72767 -0.76021,4.06841 -1.93757,8.07852 -3.74163,11.81187 -2.66529,5.55305 -6.47056,10.55296 -11.09204,14.6233 -2.26704,1.99726 -4.74774,3.75021 -7.38508,5.22411 -0.92772,0.51255 -1.85414,1.04006 -2.84264,1.42773 -0.23153,0.0902 -0.50634,0.14545 -0.72515,-0.005 -0.17743,-0.0224 -0.15547,-0.19423 -0.18026,-0.33106 -0.0573,-0.94847 -0.0448,-1.90092 -0.0633,-2.85111 -0.0809,-9.09784 -0.0971,-18.1961 -0.11933,-27.29424 -0.0186,-8.89599 -0.0249,-17.792 -0.0167,-26.688 z" />
      <path
         id="path2"
         style="fill:#ff9955;fill-opacity:1;stroke:#000000;stroke-width:0.128629"
         d="m 41.575846,141.99043 c 0.0183,-2.4783 0.11921,-4.96976 0.60741,-7.40609 0.34178,-1.73346 0.81326,-3.43896 1.328263,-5.12808 1.10148,-3.47 2.68332,-6.77655 4.56598,-9.88825 1.72724,-2.84867 3.75176,-5.52228 6.08838,-7.8998 3.2369,-3.30025 6.95935,-6.13666 11.04625,-8.30313 0.94086,-0.48992 1.88816,-0.96746 2.83181,-1.452 0.0426,3.10951 0.0829,6.21909 0.0863,9.32894 0.0368,13.10893 0.0207,26.21793 0.007,39.32688 -0.0182,10.037 -0.0256,20.07411 -0.091,30.11094 -0.0146,0.80837 0.001,1.61862 -0.0459,2.4256 0.0295,0.15675 -0.0905,0.22477 -0.20687,0.2951 -0.31456,0.20334 -0.69891,0.0202 -1.01073,-0.0996 -1.16408,-0.51606 -2.25754,-1.17573 -3.34744,-1.83034 -2.00411,-1.21927 -3.94344,-2.55097 -5.74445,-4.05639 -4.70106,-3.88832 -8.61014,-8.73596 -11.37502,-14.17657 -1.7955,-3.51464 -3.104453,-7.27087 -3.941033,-11.12615 -0.4365,-1.92007 -0.67562,-3.8817 -0.74672,-5.8488 -0.0574,-1.42328 -0.0586,-2.84809 -0.0514,-4.27233 z" />
      <path
         id="path6"
         style="fill:#ff6600;fill-opacity:1;stroke:#000000;stroke-width:0.128629"
         d="m 30.356506,142.96962 c 0.0232,-0.52139 0.36654,-0.95276 0.65532,-1.36217 0.8654,-1.20795 1.91451,-2.27503 2.7286,-3.52056 0.40652,-0.61278 0.68846,-1.31797 0.72432,-2.0582 0.0768,-0.74331 -0.0406,-1.49434 -0.29471,-2.19448 -0.55612,-1.62473 -1.39924,-3.13935 -1.89116,-4.78732 -0.13515,-0.49012 0.17637,-0.96103 0.52159,-1.28053 1.01568,-0.95233 2.22305,-1.65955 3.27307,-2.56979 0.89885,-0.76385 1.75523,-1.68161 2.06694,-2.85029 0.30858,-1.13444 0.16417,-2.32733 -0.018,-3.47018 -0.0351,-0.19614 -0.0807,-0.45851 -0.12129,-0.67941 -0.1345,-0.82563 -0.31754,-1.65705 -0.2728,-2.49805 0.0168,-0.49972 0.28931,-0.98491 0.73526,-1.22323 1.1744,-0.61722 2.44316,-1.02208 3.66524,-1.5308 0.45167,-0.19151 0.94869,-0.3908 1.394373,-0.63444 0.83805,-0.477 1.48519,-1.25527 1.83135,-2.15257 0.54687,-1.34713 0.57055,-2.81967 0.76658,-4.24099 0.10359,-0.70139 0.15835,-1.42536 0.43079,-2.08685 0.15449,-0.38997 0.52373,-0.64647 0.92213,-0.7423 0.89997,-0.23051 1.83318,-0.28044 2.7517,-0.39973 0.5613,-0.0627 1.12598,-0.13463 1.667,-0.21815 0.86874,-0.13387 1.76217,-0.32157 2.49117,-0.8419 0.81571,-0.50904 1.25318,-1.40788 1.64041,-2.252344 0.59055,-1.29658 0.9769,-2.67864 1.61215,-3.95543 0.22446,-0.45136 0.57372,-0.89368 1.09052,-1.00847 0.459,-0.0845 0.92834,0.0126 1.38766,0.0547 1.1718,0.15265 2.32817,0.42869 3.51219,0.48142 1.03286,0.0516 2.1219,0.0316 3.07041,-0.42968 0.50811,-0.26244 1.0153,-0.5267 1.52313,-0.78972 0,1.67899 0,3.35799 0,5.03698 -2.09617,1.0683 -4.2198,2.089614 -6.2363,3.305844 -4.39656,2.60877 -8.41684,5.87926 -11.74466,9.76795 -0.86988,1.01154 -1.70625,2.08061 -2.47411,3.15461 -0.52374,0.73272 -1.01976,1.46999 -1.49633,2.22316 -1.21763,1.92258 -2.30941,3.95918 -3.270213,6.03721 -0.29896,0.64377 -0.57242,1.26917 -0.84731,1.93428 -0.96574,2.33233 -1.72369,4.74993 -2.26841,7.21473 -0.28971,1.30489 -0.54165,2.68708 -0.73151,4.04606 -0.99228,7.11471 -0.32096,14.45052 1.92061,21.27396 1.22069,3.7315 2.905563,7.31043 5.000043,10.63109 0.18414,0.2894 0.39819,0.62276 0.59969,0.92518 1.08043,1.62525 2.25578,3.18862 3.53106,4.66625 0.1088,0.12259 0.26568,0.29849 0.39445,0.44017 1.25544,1.37552 2.56969,2.71347 3.95589,3.97367 2.04107,1.86798 4.2829,3.56985 6.66397,5.00904 1.98358,1.21631 4.06995,2.25106 6.16304,3.26282 0.27716,0.13546 0.55432,0.27103 0.83154,0.40647 0.003,1.73544 0.007,3.47089 0.009,5.20633 -0.57079,-0.31979 -1.11906,-0.68194 -1.70572,-0.972 -0.60783,-0.26846 -1.31699,-0.37253 -1.94893,-0.40176 -0.66532,-0.0294 -1.35537,0.0208 -1.99353,0.10905 -0.0936,0.013 -0.27374,0.0414 -0.40047,0.0607 -0.83111,0.14191 -1.65068,0.37261 -2.49832,0.39752 -0.50724,0.0117 -1.05624,0.0371 -1.51302,-0.21939 -0.31551,-0.23269 -0.4527,-0.62344 -0.62922,-0.95937 -0.42161,-0.9349 -0.75135,-1.90781 -1.13015,-2.86032 -0.33644,-0.93131 -0.75681,-1.86163 -1.46344,-2.57437 -0.47599,-0.53522 -1.08111,-0.96505 -1.77569,-1.16111 -1.14176,-0.33547 -2.33564,-0.42576 -3.51253,-0.56407 -0.81017,-0.10099 -1.63962,-0.16096 -2.41274,-0.44064 -0.46311,-0.15464 -0.85339,-0.54835 -0.92055,-1.04369 -0.27843,-1.69447 -0.34555,-3.42193 -0.72882,-5.09925 -0.20854,-0.91616 -0.58141,-1.85032 -1.33304,-2.45547 -0.5155,-0.43555 -1.177603,-0.7473 -1.765503,-0.99609 -1.06231,-0.42449 -2.14541,-0.79806 -3.18809,-1.2711 -0.42378,-0.20762 -0.88331,-0.38041 -1.23089,-0.7091 -0.33306,-0.34127 -0.33439,-0.85662 -0.32484,-1.3032 0.0742,-1.67033 0.59519,-3.29058 0.59582,-4.96699 0.0117,-0.88523 -0.2003,-1.78972 -0.72148,-2.51697 -0.70323,-1.00045 -1.68795,-1.75281 -2.6468,-2.49267 -0.78509,-0.60245 -1.60436,-1.17363 -2.29914,-1.88331 -0.25128,-0.25015 -0.4329,-0.5928 -0.37874,-0.95672 0.0859,-0.69128 0.40731,-1.32362 0.67346,-1.95904 0.54916,-1.27066 1.12612,-2.54615 1.41418,-3.90683 0.17291,-0.81336 0.14385,-1.68496 -0.19861,-2.45202 -0.57144,-1.30034 -1.58567,-2.32427 -2.44357,-3.43408 -0.46016,-0.59814 -0.95942,-1.17908 -1.30064,-1.85642 -0.052,-0.12152 -0.0841,-0.25294 -0.0848,-0.38547 z" />
      <path
         style="fill:#030201;fill-opacity:1;stroke-width:0.230611"
         d="m 144.73014,140.97205 c -0.30039,-0.63418 -1.13863,-1.82759 -1.86273,-2.65203 -1.54264,-1.75632 -2.01842,-2.57969 -1.82389,-3.1563 0.0776,-0.23 0.59479,-1.40859 1.14934,-2.6191 1.36272,-2.97479 1.48521,-3.9872 0.6811,-5.6307 -0.48288,-0.98699 -0.96246,-1.51942 -2.13529,-2.37061 -3.45758,-2.50939 -3.41053,-2.46556 -3.48685,-3.24866 -0.0402,-0.41128 0.0897,-1.53359 0.28828,-2.49401 0.99853,-4.82833 -0.0187,-6.62874 -4.60898,-8.15801 -3.10782,-1.03537 -3.08424,-1.00704 -3.35809,-4.0334 -0.31483,-3.47946 -0.54115,-4.20082 -1.67308,-5.33273 -1.1061,-1.10611 -1.95054,-1.389364 -4.75788,-1.595914 -3.52851,-0.25961 -3.58408,-0.3035 -4.70977,-3.71982 -1.39586,-4.23618 -3.42458,-5.34029 -7.97386,-4.33962 -2.75368,0.60569 -3.07509,0.53188 -4.26813,-0.9801 -0.57545,-0.72931 -1.39755,-2.06206 -1.82686,-2.96167 -0.87696,-1.8376 -2.14796,-3.09361 -3.55807,-3.51609 -1.261471,-0.37794 -27.860931,-0.37794 -29.122381,0 -1.41011,0.42248 -2.68111,1.67849 -3.55807,3.51609 -0.42931,0.89961 -1.25141,2.23236 -1.82686,2.96167 -1.19302,1.51198 -1.51446,1.58579 -4.26811,0.9801 -4.54928,-1.00067 -6.57803,0.10343 -7.97388,4.33962 -1.12566,3.41632 -1.18123,3.46021 -4.70976,3.71982 -2.80735,0.20655 -3.65177,0.489804 -4.75788,1.595914 -1.10612,1.1061 -1.389363,1.95054 -1.595913,4.75788 -0.25962,3.52852 -0.3035,3.58409 -3.71982,4.70978 -4.27713,1.40933 -5.30359,3.32166 -4.32441,8.05648 0.1986,0.96042 0.32833,2.08273 0.28826,2.49401 -0.0763,0.7831 -0.0292,0.73927 -3.48685,3.24866 -1.17283,0.85119 -1.65239,1.38362 -2.13528,2.37061 -0.80409,1.6435 -0.68163,2.65591 0.68112,5.6307 0.55452,1.21051 1.07171,2.3891 1.14931,2.6191 0.19454,0.57661 -0.28124,1.39998 -1.82387,3.1563 -1.50685,1.71559 -2.4089,3.44271 -2.4089,4.61223 0,1.16953 0.90205,2.89665 2.4089,4.61224 1.54263,1.75632 2.01841,2.57969 1.82387,3.1563 -0.0776,0.23 -0.59479,1.40859 -1.14931,2.61909 -1.36275,2.97479 -1.48521,3.9872 -0.68112,5.63072 0.48289,0.98698 0.96245,1.51941 2.13528,2.3706 3.45759,2.50939 3.41055,2.46556 3.48685,3.24866 0.0402,0.41128 -0.0897,1.53359 -0.28826,2.49401 -0.97918,4.73482 0.0472,6.64715 4.32441,8.05649 3.41632,1.12568 3.4602,1.18126 3.71982,4.70977 0.20655,2.80733 0.489793,3.65176 1.595913,4.75789 1.13191,1.1319 1.85328,1.35822 5.33272,1.67308 3.02637,0.27384 2.99803,0.25024 4.03341,3.35807 0.39795,1.19452 1.03504,2.60185 1.41573,3.12741 1.26627,1.74801 3.36897,2.2206 6.65966,1.49678 2.75365,-0.6057 3.07509,-0.53188 4.26811,0.98009 0.57545,0.72932 1.39755,2.06207 1.82686,2.96166 0.87696,1.83762 2.14796,3.09363 3.55807,3.51611 0.63566,0.19045 4.87639,0.26618 14.70325,0.26256 13.39445,-0.005 13.841171,-0.0191 14.847701,-0.47481 1.47411,-0.66728 2.23562,-1.47766 3.12472,-3.32522 0.42727,-0.88786 1.24957,-2.21098 1.82739,-2.9403 1.19776,-1.51182 1.51945,-1.58561 4.27238,-0.98009 3.29068,0.72382 5.39338,0.25123 6.65963,-1.49678 0.38071,-0.52556 1.01779,-1.93289 1.41575,-3.12741 1.03537,-3.10783 1.00704,-3.08423 4.03341,-3.35807 3.47945,-0.31486 4.20081,-0.54118 5.33272,-1.67308 1.13193,-1.13191 1.35825,-1.85328 1.67308,-5.33274 0.27385,-3.02636 0.25027,-2.99802 3.35809,-4.0334 1.19452,-0.39796 2.60184,-1.03505 3.1274,-1.41574 1.748,-1.26627 2.2206,-3.36897 1.4968,-6.65966 -0.18135,-0.82443 -0.33338,-1.88572 -0.33783,-2.35841 -0.008,-0.9268 0.16329,-1.09579 3.65513,-3.59078 1.05271,-0.75217 1.53608,-1.29574 2.00555,-2.25529 0.79947,-1.63404 0.67541,-2.65172 -0.68531,-5.62212 -0.55455,-1.2105 -1.07174,-2.38909 -1.14934,-2.61909 -0.19453,-0.57661 0.28125,-1.39998 1.82389,-3.1563 1.50683,-1.71559 2.40888,-3.44271 2.40888,-4.61224 0,-0.44392 -0.24577,-1.32601 -0.54615,-1.9602 z m -3.40274,2.929 c -0.27183,0.38173 -1.00832,1.27985 -1.63664,1.9958 -2.63124,2.99814 -2.77372,4.35529 -0.88242,8.40529 0.4855,1.03966 0.95635,2.13122 1.04634,2.42569 0.20571,0.67314 -0.22264,1.17146 -2.06876,2.40667 -3.85459,2.57901 -4.60649,4.30567 -3.6898,8.47321 0.18135,0.82443 0.33338,1.89385 0.33783,2.37646 0.008,0.8403 -0.0432,0.89979 -1.20262,1.40402 -0.66589,0.2896 -1.91757,0.77231 -2.78148,1.07271 -1.90117,0.66105 -3.19741,1.71758 -3.72973,3.04 -0.21814,0.54196 -0.49163,2.07499 -0.60774,3.40677 -0.11608,1.33179 -0.26818,2.60315 -0.33796,2.82524 -0.20102,0.63992 -0.83318,0.84896 -3.01528,0.99707 -4.6953,0.31873 -6.01474,1.28953 -7.34229,5.40218 -0.22518,0.6976 -0.60484,1.6575 -0.84371,2.13316 -0.38689,0.77035 -0.52822,0.86389 -1.29442,0.85668 -0.47305,-0.005 -1.53463,-0.15642 -2.35907,-0.33782 -2.34684,-0.51621 -4.08635,-0.44326 -5.24641,0.22002 l -0.9801,0.56038 v -2.14756 -2.14758 l 2.82499,-1.39787 c 9.52813,-4.71474 17.04423,-12.25925 21.75606,-21.83834 6.67909,-13.57845 6.52555,-29.54387 -0.41399,-43.04816 -0.7606,-1.48011 -5.73389,-8.44044 -5.97831,-8.7028 -0.68229,-0.73233 -1.52037,-0.85095 -2.23897,-0.31687 -1.04495,0.77663 -2.32894,-0.82624 5.10362,10.64182 6.10821,9.42466 6.28713,20.93423 3.46582,31.74032 -2.79339,10.69916 -9.96754,20.40983 -19.45286,26.33066 -1.42748,0.89104 -4.6852,2.61111 -4.9453,2.61111 -0.0666,0 -0.12116,-18.16067 -0.12116,-40.35706 0,-22.19637 0.0541,-40.35705 0.1205,-40.35705 0.35899,0 3.96504,1.98175 5.76019,3.16557 3.05074,2.01186 5.23435,3.84614 8.00453,6.72402 2.04177,2.12114 2.58428,2.56345 3.14418,2.56345 1.62831,0 2.22137,-1.62908 1.11916,-3.07416 -0.911,-1.19439 -4.49501,-4.71816 -6.29089,-6.18517 -2.54748,-2.08098 -5.98601,-4.28231 -9.03259,-5.782644 l -2.82499,-1.3912 v -2.17665 -2.17665 l 0.73439,0.52295 c 0.99375,0.7076 2.89294,0.82045 5.44976,0.32383 3.16383,-0.61453 3.25202,-0.58008 4.11184,1.60606 0.39908,1.01469 0.90864,2.30124 1.13232,2.85901 0.55535,1.384774 1.53184,2.435914 2.69959,2.905984 0.53744,0.21635 2.06681,0.48836 3.39858,0.60447 1.33179,0.11611 2.60314,0.26819 2.82524,0.33796 0.63991,0.20102 0.84894,0.83317 0.99706,3.01528 0.31872,4.69531 1.28953,6.01475 5.40217,7.34229 0.69761,0.22518 1.65752,0.60485 2.13315,0.84371 0.77037,0.38688 0.86393,0.52822 0.85671,1.2944 -0.005,0.47307 -0.15644,1.53465 -0.33783,2.35909 -0.91669,4.16753 -0.16479,5.8942 3.6898,8.47322 1.84703,1.23582 2.27469,1.73352 2.0679,2.40666 -0.0904,0.29447 -0.64042,1.57315 -1.22218,2.84151 -1.63877,3.57306 -1.45041,5.15778 0.93354,7.85285 1.49892,1.69455 2.251,2.71752 2.25388,3.06562 0.001,0.17067 -0.21984,0.62264 -0.49166,1.00439 z m -40.76481,53.94889 -0.44076,0.54444 -13.568901,0.0571 c -10.62805,0.0448 -13.69388,-0.007 -14.14544,-0.23663 -1.05727,-0.53881 -1.12611,-1.22767 -1.14005,-11.40881 -0.013,-9.19614 -0.0284,-9.52807 -0.47423,-9.97395 -0.58258,-0.58258 -1.63215,-0.59195 -2.33824,-0.021 -0.51381,0.41555 -0.54867,0.61 -0.62039,3.45916 -0.0418,1.66038 -0.14563,3.01687 -0.23061,3.01444 -0.0851,-0.003 -1.08861,-0.50111 -2.23014,-1.10818 -10.88658,-5.78939 -19.01477,-16.02562 -22.098133,-27.82917 -1.10767,-4.24034 -1.39215,-6.57303 -1.39215,-11.41529 0,-4.82234 0.29005,-7.22137 1.36618,-11.29997 3.213083,-12.17771 11.657023,-22.68847 22.691073,-28.24512 0.88678,-0.44658 1.6658,-0.81196 1.73116,-0.81196 0.0653,0 0.14578,15.47151 0.17872,34.38113 l 0.0599,43.6056 0.64704,0.55655 c 0.79267,0.68182 1.29814,0.70083 2.0892,0.0787 l 0.60762,-0.47796 0.0164,-49.04591 c 0.007,-21.90179 0.0895,-40.624674 0.17893,-41.606414 0.11205,-1.23003 0.2887,-1.91114 0.56835,-2.19081 0.3784,-0.37837 1.34331,-0.40584 14.25471,-0.40584 h 13.848831 l 0.44084,0.54442 c 0.43128,0.5326 0.44086,1.72571 0.44086,54.917704 0,53.18794 -0.009,54.38514 -0.44075,54.91768 z M 64.970269,99.981216 c -9.61947,4.816704 -17.04672,12.276044 -21.756093,21.850064 -9.04075,18.3797 -5.3742,40.44442 9.137643,54.98892 3.7895,3.79799 7.7654,6.64997 12.61845,9.05137 l 2.82499,1.39787 v 2.14758 2.14756 l -0.9801,-0.56038 c -1.16009,-0.66328 -2.89958,-0.73623 -5.24642,-0.22002 -0.82443,0.18134 -1.88603,0.33337 -2.3591,0.33782 -0.76618,0.007 -0.90751,-0.0863 -1.29439,-0.85668 -0.23886,-0.47566 -0.61854,-1.43556 -0.84372,-2.13316 -1.32753,-4.11265 -2.64698,-5.08345 -7.34228,-5.40218 -2.183,-0.14821 -2.8159,-0.35764 -3.01274,-0.99707 -0.0683,-0.22209 -0.22807,-1.51556 -0.35488,-2.87435 -0.40536,-4.34365 -1.27565,-5.449 -5.317343,-6.75365 -0.69759,-0.22517 -1.65752,-0.60485 -2.13315,-0.84372 -0.77038,-0.38687 -0.86391,-0.52821 -0.8567,-1.2944 0.005,-0.47306 0.15643,-1.53465 0.33781,-2.35908 0.90192,-4.1004 0.18881,-5.81087 -3.45916,-8.29718 -2.08122,-1.41845 -2.50743,-1.89586 -2.30589,-2.5827 0.0864,-0.29447 0.63134,-1.56356 1.21095,-2.82021 1.74175,-3.77624 1.51985,-5.09358 -1.42142,-8.43863 -0.83643,-0.95128 -1.58253,-1.95874 -1.65797,-2.23881 -0.1561,-0.57991 0.32613,-1.35604 2.04819,-3.29588 2.51181,-2.82946 2.70748,-4.34314 1.0312,-7.97741 -0.57961,-1.25665 -1.12455,-2.52574 -1.21095,-2.82021 -0.19606,-0.66817 0.22731,-1.16473 2.05325,-2.40807 3.89817,-2.65442 4.62601,-4.3156 3.7118,-8.47181 -0.18133,-0.82444 -0.33336,-1.88602 -0.33781,-2.35909 -0.007,-0.76618 0.0863,-0.90752 0.8567,-1.2944 0.47563,-0.23886 1.43556,-0.61853 2.13315,-0.84371 4.112643,-1.32754 5.083453,-2.64698 5.402173,-7.34229 0.1482,-2.18211 0.35717,-2.81426 0.99706,-3.01528 0.22209,-0.0698 1.49557,-0.22111 2.82995,-0.33631 4.2682,-0.36851 5.45579,-1.25536 6.67882,-4.987444 0.29093,-0.88786 0.72434,-2.00344 0.96313,-2.47908 0.51384,-1.02357 0.94765,-1.0803 3.78092,-0.49436 2.35198,0.48639 4.38278,0.35894 5.35923,-0.33637 l 0.73969,-0.5267 v 2.16246 2.16245 z"
         id="path1"
         sodipodi:nodetypes="sssssssssssssssssssssssssssssssssssssssssssssssssssssssssssssssssssssssssssssssssssssssssscccssssssssssssssssscccssssssssssssssssssscscsssssssssssscsscsssscsssscsssssssssssssssssssssssssssssssscccssscccc" />
    </g>
    <g
       clip-path="url(#clip0_429_11040-5)"
       id="g2"
       transform="matrix(3.4181431,0,0,4.4710798,50.194369,71.076977)"
       style="fill:#dc2121;fill-opacity:1;stroke-width:0.977272;stroke-dasharray:none">
      <path
         d="M 16,3 H 8 C 6.89543,3 6,3.89543 6,5 v 16 l 6,-3 6,3 V 5 C 18,3.89543 17.1046,3 16,3 Z"
         stroke="#292929"
         stroke-width="2.5"
         stroke-linecap="round"
         stroke-linejoin="round"
         id="path1-7"
         style="fill:#dc2121;fill-opacity:1;stroke-width:0.977272;stroke-dasharray:none" />
    </g>
  </g>
</svg>
